<?xml version="1.0" encoding="UTF-8"?>
<svg id="Layer_1" data-name="Layer 1" xmlns="http://www.w3.org/2000/svg" viewBox="0 0 437.4 442.62">
  <defs>
    <style>
      .cls-1 {
        fill: #ebebeb;
      }

      .cls-2 {
        fill: #e927ff;
      }

      .cls-3 {
        fill: #fff;
      }

      .cls-4 {
        fill: #ff98b9;
      }

      .cls-5 {
        fill: #a6a6a6;
      }

      .cls-6 {
        fill: #ad6359;
      }

      .cls-7 {
        fill: #c7c7c7;
      }

      .cls-8 {
        fill: #dbdbdb;
      }

      .cls-9 {
        fill: #37474f;
      }

      .cls-10 {
        fill: #455a64;
      }

      .cls-11, .cls-12 {
        fill: #263238;
      }

      .cls-12, .cls-13, .cls-14 {
        isolation: isolate;
      }

      .cls-12, .cls-15, .cls-14 {
        opacity: .2;
      }

      .cls-13 {
        opacity: .1;
      }
    </style>
  </defs>
  <g id="freepik--background-complete--inject-16">
    <rect class="cls-1" x="14.8" y="302.31" width="26.5" height="11.2"/>
    <rect class="cls-1" y="316.41" width="26.5" height="11.2"/>
    <rect class="cls-1" x="186.3" y="87.61" width="26.5" height="11.2"/>
    <rect class="cls-1" x="171.6" y="101.71" width="26.5" height="11.2"/>
    <rect class="cls-1" x="156.8" y="87.61" width="26.5" height="11.2"/>
    <rect class="cls-1" x="410.9" y="316.41" width="26.5" height="11.2"/>
    <rect class="cls-1" x="396.1" y="1.01" width="26.5" height="11.2"/>
    <rect class="cls-1" x="410.9" y="15.11" width="26.5" height="11.2"/>
    <rect class="cls-1" x="14.8" y="1.01" width="26.5" height="11.2"/>
    <rect class="cls-1" x="252.2" y="58.01" width="160.2" height="6.9"/>
    <polygon class="cls-1" points="275.5 92.01 269.3 92.01 266.8 64.91 275.5 64.91 275.5 92.01"/>
    <polygon class="cls-1" points="389.1 92.01 395.3 92.01 397.8 64.91 389.1 64.91 389.1 92.01"/>
    <polygon class="cls-8" points="266.8 64.91 275.5 64.91 275.5 74.21 267.6 74.21 266.8 64.91"/>
    <polygon class="cls-8" points="397.8 64.91 397 74.21 389.1 74.21 389.1 64.91 397.8 64.91"/>
    <path class="cls-1" d="M310.2,16.81c-7.1,9.6-14.5,20.8-16.3,32.9,0,.2,.3,.2,.3,.1,.8-3.3,1.9-6.5,3.1-9.7,4.7-1.3,9.3-2.3,11.7-7s2.2-11,1.7-16.2c0-.3-.3-.3-.5-.1Z"/>
    <path class="cls-5" d="M297.4,39.91c3.1-7.3,7.4-14.2,12.5-20.2,0,0,.1,0,0,.1-3.3,4.2-6.1,8.7-8.5,13.4,2.4-2.4,4.9-4.5,7.2-7.1,0,0,.1,0,.1,.1-2.2,2.7-4.6,5.6-7.5,7.5-.8,1.4-1.6,2.9-2.4,4.3,.2-.1,.4-.2,.6-.3,0,0,.1,0,0,0-.2,.1-.4,.2-.7,.3-.4,.7-.7,1.3-1.1,2,0,.2-.2,.1-.2-.1Z"/>
    <path class="cls-5" d="M299.8,37.41c1.9-1.1,3.7-2.3,5.5-3.6,0,0,.1,0,.1,.1-1.7,1.4-3.5,2.7-5.4,3.7-.2,0-.3-.1-.2-.2Z"/>
    <path class="cls-1" d="M293.1,49.51c0,.1,.3,.1,.3,0,0-4,0-8,.1-12,1-2,3.2-3.2,4.7-4.8,1.1-1.2,2-2.5,2.8-3.9,1.8-3.4,3-7.1,3.3-11,.4-4.2-1.2-18.3-3-17.8-.9,.2-3.9,7.2-4.7,9.5-1.3,3.8-2.3,7.7-2.9,11.7-1.3,9.4-1.5,18.9-.6,28.3Z"/>
    <path class="cls-5" d="M293.1,32.41h0c.4-5.1,1.2-10.1,2.4-15,1.1-5.3,2.5-10.2,5.2-14.9,0,0,.1-.1,.1,0s.1,.1,0,.1c-1.8,3.6-3.2,7.5-4.1,11.4,.2-.3,.4-.5,.6-.8,.1-.1,.2,0,.2,.1-.2,.4-.5,.8-.9,1.2h0c-.9,3.8-1.6,7.6-2.2,11.4l.1-.2h.1l-.2,.4c-.3,2-.6,3.9-.8,5.8,3.6-2.9,6.3-6.5,8.1-10.8h0c-1.5,4.5-4.3,8.4-8.2,11.1-.1,.5-.1,1-.2,1.6,0,.1-.2,.1-.2,0v-1.4c0,.1-.1,0,0,0Z"/>
    <path class="cls-5" d="M294.7,25.11c2.7-3.8,5.1-7.9,7.1-12.2h.1c-1.6,4.5-4,8.6-7,12.2-.1,.2-.2,.1-.2,0Z"/>
    <path class="cls-5" d="M298.2,12.01c1.1-1.9,2.2-3.8,3.3-5.8h.1c-.8,2.1-1.9,4-3.2,5.9,0-.1-.1,0-.2-.1,.1,0,0,0,0,0Z"/>
    <path class="cls-1" d="M291.2,39.31c-.1,2.6-.4,5.3-.9,7.8l.1,.9c.8-2.8,1.3-5.8,1.4-8.7v-.3h0c.1-4-.2-7.9-.9-11.8-1.2-7.3-3.9-14.3-9-19.8-.2-.1-.4-.1-.5,0,0,0,0,.1-.1,.1-2.1,5.2-1.3,11.5,.4,16.7,.9,2.8,2.3,5.5,4,7.9,1.8,2.5,4,4.6,5.5,7.2Z"/>
    <path class="cls-5" d="M282.5,9.91c4.8,7.8,8.2,17.1,8.6,26.4,0,.2-.3,.2-.3,0-.1-.8-.2-1.7-.4-2.5h0c-2.1-1.9-3.9-4-5.5-6.3,0,0,0-.1,.1,0,1.7,2,3.4,4,5.3,5.8-.4-2-.8-4.1-1.2-6l-.4-.6c-.1-.1,.1-.2,.1-.1l.1,.1c-.7-2.7-1.5-5.4-2.5-8-1.3-1.4-2.5-2.9-3.5-4.5,0,0,0-.1,.1,0,.7,1,1.4,2,2.2,3,.3,.4,.7,.7,1,1.1-1.1-2.8-2.5-5.6-4-8.2,0-.3,.2-.4,.3-.2Z"/>
    <path class="cls-5" d="M283.5,19.51c1.6,2.1,3.3,4.1,4.8,6.3q0,.1-.1,.1c-1.9-1.9-3.5-4-4.8-6.3-.1-.1,0-.1,.1-.1-.1,0,0,0,0,0Z"/>
    <path class="cls-5" d="M288.5,26.31h0l.1,.1h-.1v-.1q-.1,0,0,0c-.1,0,0,0,0,0Z"/>
    <path class="cls-1" d="M274.2,22.91c.6,4.4,2.3,8.5,5.1,12,1.1,1.4,2.5,2.4,4.1,3.2,1.8,.9,3.7,1.9,5.5,2.6,.9,2.2,1.5,4.6,1.9,6.9l.2-.6c-1.2-10.2-7.8-18.9-16.2-24.5-.2-.1-.4-.1-.6,.1v.3Z"/>
    <path class="cls-5" d="M277.1,25.91c-.1,0,0-.2,.1-.1,4.6,3.5,8.3,8,10.8,13.3,.1,.1-.1,.3-.2,.1-.4-.7-.8-1.4-1.2-2h0c-2-.5-3.8-1.6-5.2-3,0,0,0-.1,.1,0,.7,.7,1.6,1.2,2.4,1.7,.8,.4,1.6,.7,2.5,1-.7-1.1-1.5-2.2-2.2-3.3-2.1-.8-4-1.9-5.8-3.2,0,0,0-.1,.1-.1,1.7,1,3.5,1.9,5.4,2.8-1.2-1.5-2.4-3-3.8-4.4-.6-.3-1.3-.7-2-1.1m-.2-.1c.5,.2,1,.4,1.5,.7-.8-.8-1.5-1.6-2.4-2.3l.9,1.6Z"/>
    <path class="cls-5" d="M277.3,29.51c.1,.1,.2,.1,.3,.2v.1l-.3-.2c-.1-.1-.1-.2,0-.1Z"/>
    <polygon class="cls-8" points="301.4 58.01 284 58.01 284.9 46.61 285.2 42.91 300.1 42.91 300.4 46.61 301.4 58.01"/>
    <polygon class="cls-7" points="300.4 46.61 284.9 46.61 285.2 42.91 300.1 42.91 300.4 46.61"/>
    <rect class="cls-8" x="284" y="39.91" width="17.2" height="3.8"/>
    <rect class="cls-7" x="333.3" y="16.61" width="10.4" height="41.4"/>
    <rect class="cls-8" x="333.3" y="14.41" width="10.4" height="4.5"/>
    <rect class="cls-8" x="333.3" y="24.81" width="10.4" height="1.7"/>
    <rect class="cls-8" x="333.3" y="48.01" width="10.4" height="4.5"/>
    <rect class="cls-8" x="343.7" y="9.71" width="7.3" height="48.3"/>
    <rect class="cls-1" x="345.1" y="14.21" width="4.4" height="18.6"/>
    <rect class="cls-7" x="379.47" y="14.22" width="7.3" height="48.3" transform="translate(86.5 283.87) rotate(-45.33)"/>
    <rect class="cls-8" x="383.52" y="31.57" width="4.4" height="18.6" transform="translate(85.49 286.46) rotate(-45.33)"/>
    <rect class="cls-5" x="351" y="21.31" width="12.4" height="36.7"/>
    <rect class="cls-7" x="351" y="50.71" width="12.4" height="3.4"/>
    <rect class="cls-7" x="351" y="47.11" width="12.4" height="1.3"/>
    <rect class="cls-5" x="305.38" y="36.23" width="34.5" height="8.6" transform="translate(158.13 321.02) rotate(-66.77)"/>
    <rect class="cls-7" x="316.29" y="47.24" width="3.2" height="8.6" transform="translate(145.14 323.34) rotate(-66.77)"/>
    <rect class="cls-7" x="324.37" y="28.45" width="3.2" height="8.5" transform="translate(167.36 319.35) rotate(-66.77)"/>
    <rect class="cls-7" x="323.67" y="32.54" width="1.2" height="8.6" transform="translate(162.52 320.29) rotate(-66.77)"/>
    <path class="cls-7" d="M53.5,49.71V1.21h48.5V49.71H53.5ZM55.8,3.51V47.41h43.9V3.51H55.8Z"/>
    <rect class="cls-1" x="62.3" y="23.71" width="34.2" height="15.2"/>
    <rect class="cls-7" x="63.3" y="75.61" width="11.5" height="33.1"/>
    <rect class="cls-1" x="60.6" y="139.81" width="24.1" height="14.4"/>
    <path class="cls-7" d="M53.5,114.81v-48.5h48.5v48.5H53.5Zm2.3-46.2v43.9h43.9v-43.9H55.8Z"/>
    <path class="cls-7" d="M53.5,180.01v-48.5h48.5v48.5H53.5Zm2.3-46.2v43.9h43.9v-43.9H55.8Z"/>
    <rect class="cls-7" x="69" y="16.61" width="17.5" height="17.5"/>
    <rect class="cls-1" x="69" y="81.81" width="17.5" height="17.5"/>
    <rect class="cls-7" x="69" y="147.01" width="17.5" height="17.5"/>
  </g>
  <g id="freepik--Shadow--inject-16">
    <ellipse class="cls-1" cx="218.7" cy="409.61" rx="180.4" ry="24.3"/>
  </g>
  <g id="freepik--Floor--inject-16">
    <polygon class="cls-11" points="2.1 371.21 56.3 370.91 110.4 370.91 218.7 370.71 327 370.91 381.2 370.91 435.3 371.21 381.2 371.41 327 371.51 218.7 371.71 110.4 371.51 56.3 371.41 2.1 371.21"/>
  </g>
  <g id="freepik--Plant--inject-16">
    <path class="cls-2" d="M55.1,193.11s25-3.5,19.2-33.7c0,.1-27.9,6.4-19.2,33.7Z"/>
    <path class="cls-13" d="M55.1,193.11s25-3.5,19.2-33.7c0,.1-27.9,6.4-19.2,33.7Z"/>
    <path class="cls-11" d="M56.4,186.91c.5-1.5,1.1-3,1.7-4.5,0-.2,0-.4,.1-.6,0-.4,.1-.8,.1-1.2,.1-.9,.1-1.8,.2-2.7,.1-1.8,.2-3.6,.2-5.4,0-.1,.2-.1,.2,0v5.4c0,.9-.1,1.8-.1,2.7v.6c1.4-3,3.1-5.9,5-8.6,.9-1.2,1.8-2.4,2.7-3.5,1-1.1,2-2.2,3-3.4,.1-.1,.2,0,.1,.1-1.8,2-3.4,4.1-4.8,6.4-.8,1.1-1.5,2.3-2.2,3.5l.2-.1c.3-.1,.6-.2,.9-.4,.7-.3,1.3-.5,2-.8,1.3-.5,2.7-1,4-1.5,.1,0,.1,.1,0,.1-1.3,.5-2.6,1.1-4,1.7l-1.9,.8-1,.4c-.2,.1-.4,.2-.7,.2-.5,.9-1,1.8-1.5,2.7-1.2,2.3-2.2,4.7-3.1,7.2l-.2,.5c.6-.4,1.3-.7,2-1l2.6-1.2c1.8-.8,3.5-1.6,5.2-2.6h.1v.1c-1.7,.9-3.4,1.9-5.1,2.9-.9,.5-1.7,.9-2.6,1.4-.7,.4-1.5,.7-2.3,.9-.8,2.3-1.3,4.7-1.5,7.1-.3,3.4-.2,6.9-.3,10.3m-.1,.3c-.2-3.1-.4-6.2-.4-9.3,0-2.9,.6-5.8,1.5-8.5l-1.1,17.8Z"/>
    <path class="cls-11" d="M60.3,169.11c.2,1.8,.3,3.5,.2,5.3m-.1,0c-.1-1.8-.1-3.5-.3-5.3,0-.1,.1-.1,.2,0l.1,5.3Z"/>
    <path class="cls-11" d="M67.4,170.61c1.1-.4,2.2-1,3.2-1.6,.1-.1,.2,.1,.1,.1-1,.7-2.1,1.3-3.3,1.5,0,.2-.1,.1,0,0Z"/>
    <path class="cls-11" d="M54.3,241.11c0-2.8,.1-5.5,.1-8.3,.1-9.2,.1-18.3,.3-27.5,.1-7.3,.3-14.6,.5-21.8,0,0,0-.1,.1-.1v-6c0-.1,.1-.1,.1-.1,0,0,.1,0,.1,.1v6l.1,.1c.4,13,.7,25.9,.8,38.9v7.9c.1,8.4,.1,16.9,.1,25.4v4c0,7.7-.1,15.5-.1,23.2,0,.4-.5,.6-1,.6s-1.2-.2-1.2-.7c0-8.5-.1-17-.1-25.6,.2-5.4,.2-10.8,.2-16.1Z"/>
    <path class="cls-2" d="M64.8,232.71s12-8.9,23.4-2.9c11.4,6,13.2,29.2,13.2,29.2,0,0-16.8,2.4-27.3-7.6-10.2-9.7-9.3-18.7-9.3-18.7Z"/>
    <path class="cls-11" d="M61.5,233.21c2.2-.9,4.6-1.2,7-.9,.5-.1,1-.1,1.5-.1l1.7-.1,3.5-.2c2.4-.2,4.8-.3,7.1-.6,.1,0,.1,.1,0,.1-2.3,.3-4.7,.6-7,.9-1.2,.1-2.4,.2-3.6,.3l-1,.1c.4,.1,.7,.2,1.1,.3,1.9,.6,3.7,1.3,5.4,2.2,1,.2,1.9,.4,2.8,.6,1.5,.4,3,.7,4.4,1.1,2.9,.8,5.8,1.6,8.7,2.5,0,0,.1,.1,0,.1h0c-2.9-.7-5.8-1.4-8.7-2-1.4-.3-2.8-.7-4.2-1l-1.1-.2c3.2,2,6.1,4.5,8.5,7.4,2.3,2.9,4.3,6,5.9,9.4,0,.1-.1,.2-.1,.1-2-3.4-4.4-6.6-7.2-9.4,.1,.2,.1,.3,.2,.5,.2,.7,.4,1.4,.7,2.1,.4,1.4,.9,2.8,1.3,4.3,0,.1-.1,.1-.2,0-.5-1.4-1-2.8-1.5-4.1l-.7-2-.4-1c0-.1-.1-.2-.1-.3-1.3-1.3-2.8-2.5-4.3-3.6-2-1.5-4.1-2.7-6.4-3.7l.1,.6,.4,1.6c.2,1.1,.4,2.3,.7,3.4,.4,2.3,.7,4.7,1.2,7,0,.1-.1,.1-.2,0-.5-2.3-1.2-4.6-1.8-7-.3-1.2-.5-2.3-.8-3.5l-.3-1.6c-.1-.3-.1-.6-.2-.9-.2-.1-.4-.2-.7-.3-3.2-1.2-6.6-2-10-1.4-3.2,.6-5.9,2.8-7.2,5.8-.1,.3-.5,.1-.5-.2,.9-3,3.4-5.2,6-6.3Z"/>
    <path class="cls-11" d="M79.9,243.11c.3,1.5,.7,3,1,4.6,.4,1.5,.7,2.9,.8,4.5,0,.1-.1,.1-.1,0-.4-1.5-.8-3-1-4.5-.3-1.5-.6-3-.9-4.5,0-.1,.2-.2,.2-.1Z"/>
    <path class="cls-11" d="M91.5,247.01c1.5,.8,3,1.6,4.6,2.3,.1,0,0,.2-.1,.1-1.5-.7-3-1.5-4.5-2.4h0Z"/>
    <path class="cls-2" d="M62.1,216.31s14.7,.9,21.5-8.8,5.3-23.5,5.3-23.5c0,0-15.4,1.9-21.6,8.8s-5.2,23.5-5.2,23.5Z"/>
    <path class="cls-11" d="M55.2,230.81c.5-1.6,1.1-3.1,1.7-4.7s1.2-3,1.8-4.4c1.3-3,2.8-5.9,4.4-8.7,1-1.8,2.2-3.5,3.3-5.2,0-.3,.1-.5,.1-.8,.1-.4,.1-.9,.2-1.4,.2-.9,.3-1.9,.5-2.8,.3-2,.8-4,1.1-6.1,0-.1,.2-.1,.2,0-.3,2-.5,4-.8,6-.1,1-.3,2-.4,3,0,.4-.1,.7-.2,1.1,2.2-3.3,4.7-6.4,7.3-9.4,.3-.4,.7-.8,1.1-1.2,0-.1,.1-.2,.1-.3,.1-.3,.2-.6,.3-.8,.2-.6,.4-1.2,.6-1.8,.4-1.1,.8-2.3,1.1-3.5,0,0,.1-.1,.1,0v.1c-.3,1.2-.6,2.4-1,3.6-.2,.6-.4,1.1-.6,1.7,0,.1-.1,.2-.1,.3,1.9-2.1,3.8-4,5.8-6h.1v.1c-3.8,4-7.3,8.2-10.4,12.8,.4-.1,.7-.2,1.1-.3,1.1-.2,2.3-.4,3.4-.5,2.4-.3,4.8-.6,7.2-1,.1,0,.1,.1,0,.1-2.3,.4-4.5,1-6.8,1.5-1.1,.2-2.1,.4-3.2,.7-.9,.2-1.7,.4-2.6,.7-.2,.3-.5,.7-.7,1-1.1,1.6-2.1,3.2-3.1,4.8l1.5-.3c1.1-.2,2.3-.4,3.4-.6,2.2-.4,4.5-.8,6.7-1.3,.1,0,.1,.1,0,.1-2.2,.5-4.5,1.1-6.7,1.7-1.1,.3-2.2,.5-3.2,.8l-1.6,.4c-.2,.1-.4,.1-.7,.1-2.2,3.5-4.2,7-6,10.7-.8,1.6-1.6,3.2-2.4,4.8s-1.5,3.4-2.2,5.1c0,.4-.5,.3-.4-.1Z"/>
    <path class="cls-11" d="M70.2,197.01c.3-1.4,.6-2.8,.9-4.2,0-.1,.2,0,.2,0-.3,1.4-.6,2.8-.8,4.1-.2,1.4-.5,2.8-.8,4.1h0c0-1.3,.2-2.6,.5-4Z"/>
    <path class="cls-11" d="M78.8,196.61c.7-.3,1.4-.6,2.1-.9l1.1-.4,.6-.2c.2-.1,.4-.2,.6-.3,.1-.1,.2,.1,.1,.1-.2,.1-.4,.1-.6,.3l-.6,.2-1.1,.5c-.7,.3-1.4,.6-2.2,.9v-.2c0,.1,0,0,0,0Z"/>
    <path class="cls-2" d="M47,204.81s-8.9-16.6-22.4-19.2-21.8,11.4-21.8,11.4c0,0,9.9,12.5,22.3,14.7s21.9-6.9,21.9-6.9Z"/>
    <path class="cls-11" d="M15.5,193.01c3.5-.5,7.1-.4,10.6,.1l-.6-.3c-1-.5-2-1-3-1.6-2.1-1.1-4.2-2.2-6.3-3.1l-.1-.1,.1-.1h0c2.1,1,4.3,1.8,6.4,2.8,1.1,.5,2.1,1,3.1,1.5,.7,.4,1.4,.7,2.1,1.1,3,.6,5.9,1.6,8.6,2.9-.6-.6-1.1-1.2-1.7-1.8-1.3-1.4-2.5-2.8-3.9-4.1-.1-.1,0-.2,.1-.1,1.4,1.3,2.9,2.5,4.3,3.8,.7,.6,1.3,1.3,1.9,2,.3,.4,.6,.7,.9,1.1,9.4,5,16.1,14,18.1,24.5,0,.1-.1,.1-.1,.1-1.9-6.3-5.3-12.1-9.9-16.9-5-5.1-11.2-8.7-18.1-10.5-4.1-1-8.3-1.4-12.5-1.1-.1,0-.1-.1-.1-.2,.1,.1,.1,0,.1,0Z"/>
    <path class="cls-13" d="M2.8,196.91s9.9,12.6,22.3,14.8c9.5,1.7,17.3-3.3,20.4-5.7l.7-1.1s-6.4-5.4-18.5-8.5-24.9,.5-24.9,.5Z"/>
    <path class="cls-11" d="M23.4,187.11c1,.6,2,1.3,3,2,.9,.7,1.8,1.5,2.6,2.4v.1h-.1c-.9-.8-1.8-1.6-2.7-2.3s-1.9-1.4-2.8-2c-.2-.1-.1-.3,0-.2Z"/>
    <path class="cls-11" d="M16,189.91c.5,.2,1,.4,1.5,.6l1.5,.6c.1,0,.1,.2,0,.2l-1.6-.6c-.5-.2-1-.4-1.5-.6,0-.1,0-.2,.1-.2Z"/>
    <path class="cls-2" d="M48.8,225.71s-2.4,16.5-14.8,22.2-27.5,0-27.5,0c0,0,6-35.6,42.3-22.2Z"/>
    <path class="cls-11" d="M15.1,237.21c1.1-.1,2.3-.3,3.4-.5l1.7-.3,.9-.2c.3-.3,.7-.6,1-.9,2.4-2.1,4.9-3.9,7.6-5.5,1.5-.9,3-1.6,4.5-2.3h-.2l-4.1,.2c-2.7,.1-5.4,.2-8.2,.4h-.1v-.1h.1c2.7-.2,5.4-.5,8.2-.7l4-.4,2-.2,.5-.1c.7-.3,1.4-.5,2.1-.7,3.4-1.2,7-1.4,10.5-.6,3.1,.8,6.2,2.8,7,6.1,0,.1-.2,.2-.2,.1-1.2-2.8-4.2-4.1-7-4.7-1.9-.4-3.7-.4-5.6-.1-.1,.8-.3,1.7-.6,2.5-.3,1.2-.7,2.3-1,3.5-.7,2.3-1.5,4.6-2.2,6.9,0,0-.1,.1-.1,0h0c.6-2.3,1.1-4.6,1.6-7l.8-3.4c.2-.8,.4-1.6,.7-2.3-1.1,.2-2.2,.4-3.2,.8-1.9,.6-3.8,1.3-5.6,2.1-.2,1.2-.4,2.3-.7,3.5-.3,1.5-.7,2.9-1.2,4.3,0,0,0,.1-.1,.1,0,0-.1,0-.1-.1v-.3h0c.3-1.4,.6-2.7,.9-4,.2-1.1,.4-2.2,.7-3.3-1.5,.7-3,1.5-4.5,2.3,0,.3-.1,.7-.2,1-.1,.6-.2,1.1-.3,1.7-.2,1.3-.5,2.5-.8,3.8-.5,2.4-1.2,4.8-2.1,7.1v.1l-.1,.1c-.1,.1-.1,0-.1-.1,.6-2.5,1.2-4.9,1.8-7.3,.3-1.2,.5-2.4,.8-3.7,.1-.6,.2-1.2,.3-1.9,0-.2,.1-.4,.1-.5-1.7,1-3.3,2.1-4.8,3.2-2.7,2-5.1,4.3-7.4,6.7-.1,.1-.3,0-.2-.1,.9-1.3,1.9-2.5,3-3.6,.6-.7,1.3-1.3,1.9-1.9h-.2l-1.7,.3c-1.2,.1-2.3,.3-3.5,.4-.1-.3-.1-.4,0-.4Z"/>
    <path class="cls-11" d="M23.8,242.81h0c0-.1,0-.3,.1-.4,.1-.2,.1-.4,.2-.5h0c.2-1.1,.5-2.2,.7-3.3,0-.1,.1,0,.1,0-.2,1.3-.5,2.8-1.1,4.2,.1,0,0,0,0,0h0Z"/>
    <path class="cls-11" d="M34.2,242.51s0-.1,0,0c.4-1.5,.8-3,1.1-4.5,.2-.8,.3-1.5,.5-2.3,.1-.4,.2-.8,.2-1.2s.1-.7,.3-1.1c0,0,.1-.1,.1,0h0c0,.7-.1,1.5-.3,2.2-.2,.8-.3,1.6-.5,2.4l-1.2,4.8s0,.1-.1,.1-.1,0-.1-.1v-.3Z"/>
    <path class="cls-11" d="M16.2,232.41c2.3-.3,4.5-.6,6.8-.9,.1,0,.1,.1,0,.1-2.2,.3-4.5,.6-6.8,.9,0,.1-.1-.1,0-.1Z"/>
    <path class="cls-2" d="M55.1,187.01s7.6-33.2-28.1-46.7c0,0-9.9,43.8,28.1,46.7Z"/>
    <path class="cls-11" d="M47.4,168.11c-.1-.1-.3-.2-.4-.2-.7-.4-1.3-.8-2-1.1l-4.2-2.3c-2.7-1.5-5.4-3.1-8.2-4.6-.1,0,0-.2,.1-.1,2.8,1.5,5.6,2.9,8.3,4.4l4.1,2.2,1.7,.9c-1.2-2.3-2.5-4.5-3.9-6.6-1.9-2.8-3.9-5.6-6-8.2v-.2c0-.1,.1,0,.2,0,3.1,3,5.9,6.4,8.3,10.1v-.4c0-.8-.1-1.6-.1-2.5v-4.9c0-.1,.2-.1,.2,0,.1,1.6,.3,3.2,.3,4.8,0,.8,.1,1.6,.1,2.4v1.4c.7,1.2,1.4,2.4,2.1,3.6,1.2,2.2,2.3,4.4,3.2,6.7,0-.8,.1-1.7,.1-2.5,.1-1.8,.3-3.6,.4-5.4,0-.1,.2-.1,.2,0v5.5c0,.9-.1,1.8-.1,2.7l-.1,1c1.1,3,2,6,2.7,9.1,.6,3.3,1.1,6.6,1.3,10h0c-.4-3-1-6-1.9-8.9-.4-1.6-.9-3.1-1.4-4.7-1.5-.7-2.9-1.6-4.3-2.4s-3-1.6-4.5-2.5c-3-1.6-6-3.3-9-4.7-.1,0,0-.2,.1-.1,3.1,1.4,6.2,2.8,9.3,4.3,1.5,.8,3,1.6,4.5,2.4,1.2,.7,2.5,1.4,3.7,2.2-.3-1-.7-2.1-1.1-3.1-1-2.9-2.3-5.6-3.7-8.3Z"/>
    <path class="cls-11" d="M50.5,160.61c0-.1,.2-.1,.2,0-.1,1.9-.2,3.8-.4,5.7l-.1,.1-.1-.1c0-2,.2-3.9,.4-5.7Z"/>
    <path class="cls-11" d="M33.3,166.91c2.2,.9,4.5,1.8,6.7,2.7,.1,0,0,.1,0,.1-2.3-.9-4.5-1.8-6.7-2.6-.1-.1-.1-.2,0-.2Z"/>
    <path class="cls-11" d="M29.9,151.61c2.2,1,4.3,2.1,6.4,3.4,0,0,.1,.1,0,.1,0,0-.1,.1-.1,0h0c-2.1-1.2-4.2-2.4-6.3-3.4-.1,0-.1-.2,0-.1Z"/>
    <rect class="cls-9" x="30.5" y="258.91" width="51.5" height="54.3"/>
    <rect class="cls-11" x="82.9" y="278.21" width="2.6" height="93"/>
    <rect class="cls-11" x="27.2" y="278.21" width="2.6" height="93"/>
    <rect class="cls-11" x="53.6" y="278.21" width="2.6" height="93"/>
    <rect class="cls-11" x="28.5" y="309.81" width="55.7" height="7.5"/>
  </g>
  <g id="freepik--Sofa--inject-16">
    <rect class="cls-2" x="62.6" y="201.71" width="50.5" height="132.4"/>
    <rect class="cls-14" x="62.6" y="201.71" width="50.5" height="132.4"/>
    <rect class="cls-2" x="324.4" y="201.71" width="50.5" height="132.4"/>
    <rect class="cls-14" x="324.4" y="201.71" width="50.5" height="132.4"/>
    <rect class="cls-2" x="113" y="108.51" width="211.3" height="225.6"/>
    <rect class="cls-14" x="113" y="108.51" width="211.3" height="225.6"/>
    <g class="cls-15">
      <rect x="324.4" y="201.71" width="1.2" height="132.4"/>
      <rect x="112.4" y="201.71" width="1.2" height="132.4"/>
      <path d="M325.6,295.71H112.4v-41.1h213.2v41.1Zm-211.9-1.3h210.7v-38.6H113.7v38.6Z"/>
    </g>
    <g class="cls-15">
      <path d="M126.2,180.91c-.5,.1-.8,.5-.7,.9,0,.4,.4,.7,.7,.7,.5-.1,.8-.5,.7-.9,0-.4-.3-.7-.7-.7Z"/>
      <path d="M127.6,283.11c-.5,.1-.8,.5-.7,.9,0,.4,.4,.7,.7,.7,.5-.1,.8-.5,.7-.9,0-.3-.3-.6-.7-.7Z"/>
      <path d="M184.8,267.11c0-.1-.1-.2-.1-.2-.1-.2-.3-.2-.5-.1-.1,0-.1,.1-.1,.1,0,.1-.1,.2-.1,.2-.6,1,1.2,1,.8,0Z"/>
      <path d="M101.3,285.21c0-.1-.1-.2-.1-.2-.1-.2-.3-.2-.5-.1-.1,0-.1,.1-.1,.1-.1,.1-.1,.2-.1,.2-.6,1,1.3,1,.8,0Z"/>
      <path d="M133.4,186.01c-.4,0-.6,.3-.6,.6,0,.4,.3,.6,.6,.6,.4,0,.6-.3,.6-.6,0-.4-.3-.6-.6-.6Z"/>
      <path d="M88.9,250.81c-.4,0-.6,.4-.6,.7s.3,.5,.6,.6c.4,0,.6-.4,.6-.7-.1-.4-.3-.6-.6-.6Z"/>
      <path d="M172.7,150.31c-.3-.3-.9-.3-1.2,0s-.4,.8-.3,1.2c.2,.5,.8,.8,1.3,.6,.3-.1,.5-.3,.6-.6,0-.4-.1-.8-.4-1.2Z"/>
      <path d="M134.6,278.41c-.3-.3-.9-.3-1.2,0s-.4,.8-.3,1.2c.2,.5,.8,.8,1.3,.5,.2-.1,.4-.3,.5-.5,.2-.4,0-.9-.3-1.2Z"/>
      <path d="M310.2,287.01c.5,0,.8-.4,.8-.8,0-.5-.4-.8-.8-.8-.5,0-.8,.4-.8,.8s.3,.8,.8,.8Z"/>
      <path d="M259.5,175.41c.5-.1,.8-.5,.7-.9,0-.4-.4-.7-.7-.7-.5,.1-.8,.5-.7,.9,0,.4,.3,.7,.7,.7Z"/>
      <path d="M337.3,279.11c0,.1,.1,.2,.1,.2,.1,.2,.3,.2,.5,.1,.1,0,.1-.1,.1-.1,0-.1,.1-.2,.1-.2,.6-1-1.3-1-.8,0Z"/>
      <path d="M234,228.81c.3,.3,.9,.3,1.2,0,.3-.3,.4-.8,.3-1.2-.2-.5-.8-.8-1.3-.5-.2,.1-.4,.3-.5,.5-.2,.4,0,.8,.3,1.2Z"/>
    </g>
    <g class="cls-15">
      <path d="M113.7,295.71s53.2,10.4,105.3,10.4,105.4-10.4,105.4-10.4H113.7Z"/>
    </g>
    <rect class="cls-9" x="62.6" y="322.51" width="312.2" height="11.6"/>
    <polygon class="cls-9" points="130.2 334.11 117.3 360.41 104.5 386.81 93.2 386.81 97.4 360.41 101.6 334.11 130.2 334.11"/>
    <polygon class="cls-11" points="101.6 334.11 130.2 334.11 122.4 350.01 99 350.01 101.6 334.11"/>
    <polygon class="cls-9" points="339.4 386.81 328.1 386.81 315.2 360.41 302.4 334.11 331.1 334.11 335.2 360.41 339.4 386.81"/>
    <polygon class="cls-11" points="333.6 350.01 310.2 350.01 302.4 334.11 331 334.11 333.6 350.01"/>
  </g>
  <g id="freepik--Character--inject-16">
    <path class="cls-6" d="M342,277.31c-.9-2.8-50-67.6-53.3-68.8-.4-.2-22.3,15.4-22.3,15.4-.9,1.2-42.6-7.6-42.6-7.6l-.4,50.3,75.9-1.6s10.2,6,19.6,10.9h0c5.8,3,10.9,5.6,12.3,6,3.9,1,11.7-1.8,10.8-4.6Z"/>
    <path class="cls-3" d="M331.3,281.91c-1.5-.4-6.6-2.9-12.3-6h0c-9.4-4.9-19.6-11-19.6-11l-16.9,.4-26.5-42.6c5.8,1,10.1,1.6,10.4,1.3,0,0,21.9-15.6,22.3-15.4,3.4,1.2,52.4,66,53.3,68.8s-6.9,5.5-10.7,4.5Z"/>
    <path class="cls-2" d="M342.4,277.41c-1-2.8-50.2-67.6-53.6-68.9-1.3-.5-12,6.1-22.4,15.4l31.8,41.7s29.3,15.5,33.3,16.5,11.9-1.9,10.9-4.7Z"/>
    <path class="cls-11" d="M339.2,278.51c-8.5-10.6-41.9-54.4-49.5-65.6-.1-.1,0-.1,.1-.1,8.7,10.4,41.7,54.4,49.6,65.5,.1,.3-.1,.4-.2,.2Z"/>
    <path class="cls-11" d="M326,279.81c-1.9-2.4-2.7-5.5-2.3-8.5,.4-2.7,1.8-5.2,4-6.8,.1,0,.2,.1,.1,.1-3.8,4.1-4.5,10.3-1.6,15.1v.1s-.2,.1-.2,0Z"/>
    <path class="cls-11" d="M301.9,268.21c-3.4-4.3-5.7-10.5-4.2-15.9,.1-.2,.4-.1,.4,0,.9,5.3,2.4,10.5,4.4,15.5,.1,.2,0,.4-.2,.4-.2,.2-.3,.1-.4,0Z"/>
    <path class="cls-11" d="M305.7,270.61c-3.4-4.3-5.7-10.5-4.2-15.9,.1-.2,.4-.1,.4,0,.9,5.3,2.4,10.5,4.4,15.5,.1,.2,0,.4-.2,.4-.1,.2-.3,.1-.4,0Z"/>
    <path class="cls-11" d="M309.6,273.01c-3.4-4.3-5.7-10.5-4.2-15.9,0-.2,.4-.1,.4,0,.9,5.3,2.4,10.5,4.4,15.5,.1,.2,0,.4-.2,.4-.1,.1-.3,.1-.4,0Z"/>
    <path class="cls-11" d="M313.5,275.31c-3.4-4.3-5.7-10.5-4.2-15.9,0-.2,.4-.1,.4,.1,.9,5.3,2.4,10.5,4.4,15.5,.1,.2,0,.4-.2,.4-.2,.1-.3,.1-.4-.1Z"/>
    <path class="cls-11" d="M281.4,223.51c-3.7-4.9,3.9-10.6,7.6-5.7s-3.9,10.6-7.6,5.7Z"/>
    <path class="cls-11" d="M300,276.61c1.2-4.6,.4-9.7,.2-14.4,0-.4-.4-.6-.8-.6q-.1,0-.2,.1-.1-.1-.2,0h0c-3.7,3.4-6.5,7.6-8.1,12.4-.9,2.8-.5,6.9,3,7.7,3.3,.7,5.3-2.5,6.1-5.2Zm-3.5,2.9c-5,3.2-4.7-3.9-4-5.9,.5-1.3,1.1-2.6,1.7-3.8,1.4-2.5,2.9-5,4.6-7.4,0,2.3,.1,4.6,.2,7,.1,2.8,.3,8.4-2.5,10.1h0Z"/>
    <path class="cls-11" d="M284.5,248.31c-2.6,2.5-.7,6.2,1.5,8.2,3.8,3.3,8.4,5.5,13.3,6.4,.1,0,.2,0,.2-.1h0c.4,0,.6-.4,.6-.7q0-.1-.1-.2c-2.2-4.1-4.1-8.9-7.6-12.2-2-2-5.5-3.8-7.9-1.4Zm10.8,7.9c1.2,2,2.2,4.1,3.4,6-2.6-1.2-5.2-2.5-7.7-3.9-1.2-.7-2.4-1.5-3.4-2.4-1.7-1.4-5.6-7.2,.3-7.1,3.3,.1,6,5,7.4,7.4h0Z"/>
    <path class="cls-11" d="M221.5,200.91h-34.1s-35.6-17.1-64.3-10.2c-32.9,7.9-37.1,49.2-12.5,63.8,31.2,18.5,169.8,14.9,169.8,14.9l-30-50.8s-46.1-9.7-87.9-8.3l59,8v-17.4Z"/>
    <path class="cls-10" d="M252.5,222.01c0-.1-.1-.2-.1-.3l-.1-.2c0-.2-.1-.3-.1-.5-.1-.3-.2-.7-.4-1-.1-.3-.3-.6-.4-1-.2-.3-.4-.6-.6-.9h-.3c-5.1-1-39.5-5.9-44.6-6.5s-10.4-1.1-15.5-1.5c-10.3-.9-20.7-1.3-31.1-1.1-1,0-1.9,.1-2.9,.1-.2-.1-.4-.1-.6-.2-.5-.1-1-.2-1.5-.3-.9-.2-1.9-.3-2.8-.5-2-.3-3.9-.5-5.9-.9,0,0-.1,0-.1,.1,0,0,0,.1,.1,.1,2,.4,3.9,1,5.9,1.4,.6,.1,1.1,.2,1.7,.4-3.8,.2-7.6,.5-11.4,.8-.1,0-.1,.1-.1,.1,0,0,0,.1,.1,.1,5.2-.3,10.4-.4,15.5-.3s10.3,.2,15.4,.5c10.4,.6,20.7,1.5,31.1,2.6,5.8,.6,40.9,5.7,46.8,6h.1c0,.1,.1,.3,.2,.4,.2,.3,.3,.6,.5,.9,.2,.3,.3,.6,.5,.9,.1,.1,.2,.3,.3,.4l.1,.2q.1,.1,.1,.2c-.1,.2,.1,.1,.1,0Z"/>
    <path class="cls-10" d="M269.6,266.41c-1.9-3-3.4-6.1-5.1-9.2s-3.4-6.1-5.1-9.2c-3.4-6.1-15.6-26.7-16.9-28.1-.1-.1-.2,0-.2,.1,.6,1.6,8.2,15.2,10,18.2,3.5,6.1,7.2,12,10.9,18,1,1.7,2.1,3.4,3.2,5.1s2.2,3.4,3.1,5.1c0,.2,.2,.1,.1,0Z"/>
    <path class="cls-10" d="M242.2,225.01c-3.1-.7-6.2-1.2-9.3-1.8s-6.2-1.2-9.3-1.7c-6.2-1.2-12.4-2.3-18.6-3.3-12.4-2.1-24.9-3.8-37.4-5-7.1-.7-14.1-1.1-21.2-1.6-.1,0-.1,.2,0,.2,12.6,.6,25.2,2.3,37.7,4.1s24.7,3.7,37,5.8c3.5,.6,7,1.2,10.4,1.8,3.5,.6,7.1,1.4,10.6,1.8,.1-.1,.2-.3,.1-.3Z"/>
    <path class="cls-6" d="M277.4,442.61c-3-.3-77.3-33.7-79.3-36.8-.8-1.1,3.4-12.3,9-25.5,1.2-2.9,2.4-5.8,3.7-8.8,8.3-19.4,17.5-39.9,17.5-39.9l49.8,22.2-18.9,39.2-4.1,8.6s22.7,25.5,24.6,29.1,.7,12.2-2.3,11.9Z"/>
    <path class="cls-3" d="M277.4,442.61c-3-.3-77.3-33.7-79.3-36.8-.9-1.4,5.5-17.5,12.7-34.3l48.4,21.6-4.1,8.6s22.7,25.5,24.6,29.1,.7,12.1-2.3,11.8Z"/>
    <path class="cls-2" d="M277.4,442.61c-3-.3-77.3-33.7-79.3-36.8-.8-1.1,3.4-12.3,9-25.5l48,21.4s22.7,25.5,24.6,29.1,.7,12.1-2.3,11.8Z"/>
    <path class="cls-11" d="M277.7,439.21c-12.3-5.9-62.5-28.5-75.2-33.4q-.1,0,0,.1c12.1,6.1,62.5,28.4,75.1,33.6,.3,0,.3-.2,.1-.3Z"/>
    <path class="cls-11" d="M276,426.01c-2.8-1.3-6-1.4-8.8-.3-2.5,1-4.6,2.9-5.8,5.4,0,.1,.1,.1,.1,.1,3.1-4.7,9-6.7,14.4-5,.1,0,.2,0,.1-.2q.1,.1,0,0Z"/>
    <path class="cls-11" d="M259.3,405.21c-5-2.3-11.5-3.1-16.5-.5-.2,.1,0,.4,.1,.4,5.4-.3,10.8-.1,16.1,.8,.2,0,.4-.1,.4-.3,.1-.2,0-.4-.1-.4Z"/>
    <path class="cls-11" d="M262.5,408.41c-5-2.3-11.5-3.1-16.5-.5-.2,.1,0,.4,.1,.4,5.4-.3,10.8-.1,16.1,.8,.2,0,.4-.1,.4-.3,.1-.2,0-.3-.1-.4Z"/>
    <path class="cls-11" d="M265.6,411.61c-5-2.3-11.5-3.1-16.5-.5-.2,.1,0,.4,.1,.4,5.4-.3,10.8-.1,16.1,.8,.2,0,.4-.1,.4-.3,.2-.2,.1-.3-.1-.4Z"/>
    <path class="cls-11" d="M268.8,414.81c-5-2.3-11.5-3.1-16.5-.5-.2,.1,0,.4,.1,.4,5.4-.3,10.8-.1,16.1,.8,.2,0,.4-.1,.4-.3,.2-.1,.1-.3-.1-.4Z"/>
    <path class="cls-11" d="M211,395.31c-5.6-2.5-9.5,6.2-3.9,8.7s9.5-6.2,3.9-8.7Z"/>
    <path class="cls-11" d="M270.7,394.31c-1.6-3.2-5.7-2.6-8.2-1.1-4.3,2.6-7.8,6.3-10.3,10.7,0,.1,0,.2,.1,.2h0c0,.4,.2,.9,.7,.8,4.6-.9,9.7-1.2,14-3.5,2.5-1.3,5.2-4.1,3.7-7.1Zm-10.9,7.8c-2.3,.5-4.6,.8-6.8,1.4,1.9-2.1,4-4.2,6.1-6.1,1.1-.9,2.2-1.8,3.3-2.5,1.8-1.2,8.6-3.1,6.6,2.5-1,3.1-6.5,4.2-9.2,4.7h0Z"/>
    <path class="cls-11" d="M239,400.11c4,2.6,9.1,3.4,13.6,4.6,.5,.1,.8-.3,.8-.7,.1,0,.1-.1,.1-.2h0c-2-4.6-5.2-8.6-9.3-11.5-2.4-1.7-6.4-2.6-8.3,.4-1.7,2.9,.7,5.9,3.1,7.4Zm-1.8-4.2c-1.5-5.8,5.1-3.2,6.8-1.9,1.1,.9,2.1,1.8,3.1,2.8,2,2.1,3.8,4.3,5.6,6.6-2.2-.8-4.5-1.3-6.7-2-2.6-.7-8-2.3-8.8-5.5Z"/>
    <path class="cls-11" d="M211.9,367.01l56,25.3s66.6-127.8,68.4-167c1.5-33.3-21.7-46.1-96.6-24.6l-18.4,.2v12.7c8.1,1.1,29.6,4.4,29.6,4.4,15.6,5.9,20.7,8.3,20.4,8.8-39.1,78.9-59.4,140.2-59.4,140.2Z"/>
    <path class="cls-10" d="M280.4,212.91c-2.3,3-4.4,6.1-6.4,9.3-12-5.4-25.1-8.4-38.1-10.1-3.7-.4-7.4-.8-11.1-1-.1,0-.1,.2,0,.2,13.2,.9,26.2,3.4,38.8,7.4,3.5,1.1,6.9,2.3,10.3,3.6-2.4,3.8-4.7,7.8-6.8,11.7-4.1,7.4-7.7,15-10.9,22.8-1.8,4.3-3.5,8.7-5.1,13.1,0,.1,.2,.2,.2,.1,6.8-15.2,14.3-30.2,22.4-44.8,2.3-4.1,4.7-8.2,6.9-12.3,0,0-.2-.2-.2,0Z"/>
    <path class="cls-10" d="M269.1,378.81c-3.3-1.3-6.4-2.9-9.6-4.3l-9.6-4.3c-6.4-2.9-28.5-12-30.4-12.5-.1,0-.2,.1-.1,.2,1.4,.9,15.7,7.3,18.9,8.7,6.5,2.8,13,5.3,19.5,8,1.9,.8,3.7,1.5,5.6,2.2s3.8,1.4,5.6,2.2c.1,0,.2-.2,.1-.2Z"/>
    <path class="cls-10" d="M280.1,218.61c-4.4,8.4-8.2,17.2-12,25.8s-7.5,17.3-11.1,26c-7.2,17.4-13.9,34.9-20.1,52.7-3.5,10-6.8,20.2-10,30.3,0,.1,.2,.2,.2,.1,5.9-17.9,12.4-35.7,19-53.4s13.8-35.1,21.3-52.4c2.1-4.9,4.3-9.7,6.4-14.5,2.2-4.8,4.5-9.6,6.5-14.5,.2-.1-.1-.3-.2-.1Z"/>
    <path class="cls-10" d="M185.8,199.91c1.2,1.3,79,3.1,79.4,2.6,1.1-1.3-9-50.7-17.1-69.6-10.4-24.2-16.3-26.4-19.8-27.8-4.5-1.8-12.6-1.4-14.5-.6-2.2,.9-11.9,11.7-14.8,20.5-5.8,17.6-14.3,73.8-13.2,74.9Z"/>
    <path class="cls-11" d="M234.6,109.41h-26.1c.5-.6,1-1.1,1.4-1.6h23c.6,.5,1.2,1,1.7,1.6Zm3.3,4.1h-32.6l-1.1,1.6h34.7c-.3-.6-.6-1.1-1-1.6Zm3.5,5.7h-39.7c-.3,.5-.6,1-.9,1.6h41.5l-.9-1.6Zm3,5.7h-45.3l-.1,.2c-.1,.4-.3,.9-.4,1.4h46.6c-.3-.6-.6-1.1-.8-1.6h0Zm2.6,5.6h-49.6c-.1,.5-.3,1-.4,1.6h50.7l-.7-1.6Zm2.4,5.7h-53.4c-.1,.5-.2,1-.4,1.6h54.3c-.1-.6-.3-1.1-.5-1.6h0Zm2,5.6h-56.6c-.1,.5-.2,1-.3,1.6h57.4l-.5-1.6Zm1.8,5.7h-59.5c-.1,.5-.2,1-.3,1.6h60.3c-.2-.6-.4-1.1-.5-1.6h0Zm1.6,5.7h-62.3c-.1,.5-.2,1-.3,1.6h63c-.1-.6-.3-1.1-.4-1.6h0Zm1.5,5.6h-64.8c-.1,.5-.2,1-.3,1.6h65.5c-.1-.5-.3-1.1-.4-1.6h0Zm1.5,5.7h-67.3l-.3,1.6h67.9c-.1-.6-.2-1.1-.3-1.6h0Zm1.3,5.7h-69.6c-.1,.5-.2,1-.2,1.6h70.2l-.4-1.6Zm1.3,5.6h-71.7l-.2,1.6h72.4c-.2-.5-.4-1.1-.5-1.6h0Zm1.3,5.7h-73.9c-.1,.5-.1,1.1-.2,1.6h74.4l-.3-1.6Zm1.2,5.7h-75.9c-.1,.5-.1,1.1-.2,1.6h76.4c-.1-.6-.3-1.1-.3-1.6h0Zm1,5.6h-77.7c-.1,.6-.1,1.1-.2,1.6h78.1c0-.5-.1-1.1-.2-1.6h0Zm1,5.7h-79.2c-.1,.5-.1,.9,.1,1.4,.1,.1,.3,.1,.5,.1h78.9c-.1-.4-.2-.9-.3-1.5h0Z"/>
    <path class="cls-6" d="M241.2,111.71c33.5,25.2,62.5,60.2,59.8,71.3-3,11.7-26.1,24.8-46.6,27.5-4.2,.6-17.2-30.2-12.9-31.6,3.4-1.1,18.6-5.4,20.4-7.5,1.3-1.4-22.4-34.7-30-52-8.1-18.3,.3-14.5,9.3-7.7Z"/>
    <path class="cls-6" d="M250.1,177.91s-12.8,1.3-21.1,2.5c-4.6,.7-12.5,2.6-15.7,4.6-4.8,3.1-22.7,19.1-18.9,23.5,3.4,4,8.6-2.3,8.6-2.3,0,0-6.3,6.4-1.7,9.4s10.6-6,10.6-6c0,0-7.2,6.3-1.9,9,4.5,2.3,12.5-7.2,12.5-7.2,0,0-8.2,5.8-3.8,8.7,4.9,3.1,18.6-9.7,18.6-9.7,11,1.2,17.7,.5,25.4-1.7,1.3-.5-12.6-30.8-12.6-30.8Z"/>
    <path class="cls-11" d="M209.9,211.71c.5-.7,1-1.4,1.5-2,.9-1.3,2-2.6,3.1-3.8s2.2-2.3,3.4-3.4,2.6-2.2,3.8-3.4c0,0,.1-.1,.1,0s.1,.1,0,.1h0c-1.2,1.2-2.4,2.4-3.4,3.6-1.1,1.2-2.2,2.4-3.2,3.7s-2.2,2.3-3.3,3.5c-.5,.6-1,1.2-1.6,1.8-.5,.6-1,1.2-1.5,1.7h-.1c.4-.6,.8-1.2,1.2-1.8Z"/>
    <path class="cls-11" d="M201.7,207.61c1.7-2.5,3.5-5,5.5-7.2,2-2.3,4.3-4.3,6.8-6.2,.1-.1,.2,.1,.1,.1-2,2.3-4.1,4.5-6.2,6.8-1,1.1-5.4,6.2-6,6.7-.1,.1-.3-.1-.2-.2Z"/>
    <path class="cls-11" d="M217.6,215.81c1.6-2.4,3.4-4.6,5.3-6.7,2.2-2,4.5-3.8,6.9-5.4,.1,0,.2,.1,.1,.1-2.1,2-4.3,3.9-6.4,6-1,1-4.7,5.3-5.8,6.2,0,.1-.1-.1-.1-.2Z"/>
    <path class="cls-10" d="M278.5,142.71l-25.5,16.6s-19-29.3-23.9-43.2,.8-13.9,14.2-3.9,35.2,30.5,35.2,30.5Z"/>
    <path class="cls-11" d="M239.4,109.41h-12c-.1-.5-.1-1,0-1.6h9.6c.7,.5,1.6,1,2.4,1.6Zm5.6,4.1h-16.8c.1,.5,.3,1,.5,1.6h18.3l-2-1.6Zm7,5.7h-21.7c.2,.5,.4,1,.7,1.6h22.9c-.6-.6-1.2-1.1-1.9-1.6h0Zm6.7,5.7h-25.8l.8,1.6h26.8l-1.8-1.6Zm6.4,5.6h-29.3c.3,.5,.6,1,.9,1.6h30.1l-1.7-1.6Zm6.3,5.7h-32.4l.9,1.6h33.2l-1.7-1.6Zm6.1,5.6h-35.3c.3,.5,.6,1.1,.9,1.6h34.3l1-.7-.9-.9Zm-31.9,5.7l.9,1.6h22.2l2.4-1.6h-25.5Zm3.5,5.7l1,1.6h9.9l2.4-1.6h-13.3Zm3.6,5.6l.3,.5,.7-.5h-1Z"/>
    <path class="cls-11" d="M272.7,139.11c-9.7,7.8-19.4,13-21.3,14.4-.1,.1-.2-.1-.1-.1,1.9-1.2,12.4-8.8,21.2-14.4,.2-.2,.3,0,.2,.1Z"/>
    <path class="cls-11" d="M254.6,158.21c-.5,.2-1.1,.5-1.5,.8-2.8-4.9-5.9-9.9-8.8-14.7l-4.2-7.2c-1.5-2.5-2.8-5.1-4.4-7.5h-.1v.1c1,2.4,2.2,4.7,3.5,6.9-.3-.3-.5-.7-.8-1-.6-.8-1.2-1.5-1.8-2.3-.1-.1-.3,0-.2,.1,.5,.8,1,1.6,1.5,2.4s1,1.6,1.5,2.3,1.1,1.4,1.7,2.1c.1,.1,.1,.2,.2,.3,.8,1.4,1.5,2.9,2.4,4.3,2.8,4.9,9.3,14.9,9.4,14.8,.7-.4,1.3-.8,1.9-1.2-.2-.2-.2-.3-.3-.2Z"/>
    <path class="cls-6" d="M199.2,110.71c-27.2,14.1-52.8,31.3-57.6,43.3-3,7.5,.7,21.1,3.7,29.3,1.5,4,39.1-11.5,36-14.9-7.7-8.2-9-11.5-8.1-13.1,.5-1.1,30.3-26.9,38.7-38.6,11.6-16.2-.8-12.2-12.7-6Z"/>
    <path class="cls-6" d="M195.6,205.41c-3.6,2-7.7-7.2-7.7-7.2-.1,1.8-.9,3.4-2.1,4.7-2.3,2.1-6.6-.5-6.6-.5-.5,1.8-1.6,3.4-3,4.6-2.4,1.8-7.1-.2-7.1-.2-1.4,1.4-3.2,2.2-5.2,2.4-5.2,.2-9.6-6.5-12.5-10.6s-7.1-18.8-8.1-21.4l26.7-18.6s18.2,15.1,20.9,20.5c2.1,4.4,10.1,23.3,4.7,26.3Z"/>
    <path class="cls-11" d="M187.9,198.11c-1.2-5.4-3.8-10.5-6.2-15.4-.1-.1-.2,0-.2,.1,2.5,4.9,3.8,10.5,6.2,15.4q.1,0,.2-.1h0Z"/>
    <path class="cls-11" d="M179.4,202.11c-.4-1.2-1-2.3-1.6-3.4-.7-1.2-1.4-2.3-2.1-3.5-1.4-2.3-2.9-4.5-4.4-6.7-.1-.1-.2,0-.2,.1,1.4,2.3,2.8,4.6,4.1,6.9,.6,1.2,1.3,2.4,1.9,3.5,.5,1.2,1.2,2.2,1.9,3.2,.1,.1,.2,.1,.3,0,.1,0,.2-.1,.1-.1Z"/>
    <path class="cls-11" d="M169,206.71c-.4-1.1-.9-2.1-1.6-3-.7-1-1.3-2.1-2-3.1-1.3-2.1-2.6-4.1-3.8-6.2h-.1v.1c1.2,2.1,2.4,4.3,3.7,6.5,.6,1,1.2,2.1,1.9,3.1,.5,1,1.1,1.9,1.9,2.7-.1,0,0-.1,0-.1Z"/>
    <path class="cls-2" d="M159.8,131.91l19.9,19.6s26.2-23.2,33.8-35.8,2-13.8-13.2-6.6-40.5,22.8-40.5,22.8Z"/>
    <path class="cls-10" d="M159.8,131.91l19.9,19.6s26.2-23.2,33.8-35.8,2-13.8-13.2-6.6-40.5,22.8-40.5,22.8Z"/>
    <path class="cls-11" d="M216.9,107.81c-.1,.5-.2,1.1-.4,1.6h-17.1l.9-.4c.8-.4,1.6-.8,2.4-1.1l14.2-.1Zm-25.4,5.7l-2.9,1.6h25.3c.3-.5,.6-1.1,.9-1.6h-23.3Zm-10.2,5.7l-2.7,1.5h31.4c.4-.5,.8-1,1.2-1.6l-29.9,.1Zm-9.8,5.6l-2.6,1.6h36.3c.5-.5,.9-1,1.4-1.6h-35.1Zm-9.4,5.7l-2.2,1.4,.2,.2h39.9l1.5-1.6h-39.4Zm2.1,5.7l1.6,1.6h28.6l1.6-1.6h-31.8Zm5.8,5.6l1.6,1.6h16.9l1.6-1.6h-20.1Zm5.8,5.7l1.6,1.6h5.1l1.7-1.6h-8.4Z"/>
    <path class="cls-11" d="M183.9,146.31c-9.2-7.8-16-15.9-17.6-17.5-.1-.1,.1-.2,.1-.1,1.5,1.6,10.7,10.1,17.6,17.5,.1,.1,0,.2-.1,.1Z"/>
    <path class="cls-11" d="M201.6,120.31c-1,2.1-2,4.3-2.9,6.5v-.4c.1-1.3,.3-2.7,.6-4,0-.1-.2-.2-.2-.1-.3,1.3-.6,2.7-.8,4-.1,.6-.2,1.3-.2,1.9v.3c-1,2.9-1.6,5.9-2.4,8.9q0,.1,.1,.1t.1-.1c.8-2.9,2-5.7,3-8.5s1.9-5.7,2.8-8.6c.1,0-.1-.1-.1,0Z"/>
    <path class="cls-6" d="M215.6,118.01c4.4,1.2,12.2-5.3,15.4-10.6,.2-.4-.2-4.3-.5-9.2-.2-3-.3-6.2-.2-9.2,0-.6-19,3.9-19,3.9,.9,3.8,1.4,7.7,1.4,11.6,0,.4-.1,.8-.2,1.2v.2c-.5,2.3-1.2,10.9,3.1,12.1Z"/>
    <path class="cls-11" d="M229.1,89.01c-1.1,5-4.7,17.2-14.7,17-.6,0-1.3-.1-1.9-.2v-.2c.1-.4,.2-.8,.2-1.2,0-3.9-.5-7.8-1.4-11.6,0,0,13.7-3.2,17.8-3.8Z"/>
    <path class="cls-2" d="M210.1,78.51c.1,4.6-3.1,8.4-7.2,8.5s-7.4-3.6-7.5-8.2,3.1-8.4,7.2-8.5,7.5,3.5,7.5,8.2Z"/>
    <ellipse class="cls-7" cx="204.4" cy="78.91" rx="8.2" ry="9.3" transform="translate(-1.48 3.94) rotate(-1.1)"/>
    <path class="cls-6" d="M229.3,64.01c3.1,6.3,2.8,25.9-1.2,30.9-5.8,7.3-16.8,9.7-23.4,2.4-6.4-7.1-5.5-32.6-.9-37.4,6.8-6.9,20.9-5.1,25.5,4.1Z"/>
    <path class="cls-11" d="M213.9,81.11l.1,.1c-.1,1.3,.1,2.8,1.3,3.3v.1c-1.5-.2-1.7-2.3-1.4-3.5Z"/>
    <path class="cls-11" d="M215.1,79.71c2.1-.1,2.2,4.1,.3,4.3s-2.1-4.2-.3-4.3Z"/>
    <path class="cls-11" d="M206.5,81.31l-.1,.1c.1,1.3-.1,2.8-1.2,3.3v.1c1.4-.2,1.6-2.2,1.3-3.5Z"/>
    <path class="cls-11" d="M205.3,80.01c-2.1-.1-2.2,4.2-.2,4.3s1.9-4.2,.2-4.3Z"/>
    <path class="cls-11" d="M216.9,76.31c-.6,0-1.2-.1-1.7-.2-.6,0-1.2-.2-1.7-.6-.3-.3-.3-.8-.1-1.1,.5-.6,1.4-.9,2.2-.7,.8,.1,1.6,.4,2.1,1,.3,.4,.2,1.1-.2,1.4-.2,.1-.4,.2-.6,.2Z"/>
    <path class="cls-11" d="M203.2,76.91c.6-.1,1.1-.3,1.7-.5,.6-.1,1.2-.4,1.6-.8,.2-.3,.2-.8-.1-1.1-.6-.5-1.5-.7-2.2-.3-.8,.2-1.5,.6-2,1.3-.3,.5-.1,1.1,.4,1.4,.2,0,.4,.1,.6,0Z"/>
    <path class="cls-11" d="M216.4,93.31c-.3,.3-.6,.8-1.1,.8s-1-.1-1.4-.3c0,0-.1,0-.1,.1,.4,.5,1.1,.8,1.7,.7,.5-.2,.9-.6,1-1.2,.1-.1,0-.1-.1-.1Z"/>
    <path class="cls-11" d="M214.9,89.41c-.6,1.1-1.7,1.8-2.9,2.1-.5,.1-1.1,.2-1.6,.1h-.6c-.1,0-.3-.1-.3-.3h0v-.1h0v-.1c-.1-1,0-2.6,0-2.6-.4,.2-2.2,1.1-2.2,.6,.1-4.4,.3-9.3,1.4-13.7,0-.1,.1-.1,.1-.1,.1,0,.1,.1,.1,.1,0,4.2-.7,8.5-.7,12.7,.7-.3,1.4-.6,2.1-.7,.1,0-.2,3-.1,3.4h0c1.7,.1,3.4-.4,4.6-1.6,.1,0,.2,.1,.1,.2Z"/>
    <path class="cls-11" d="M210.9,91.01c.6,.7,1.3,1.3,2.2,1.6,.5,.2,1,.2,1.5,0,1.1-.3,1.1-1.3,.8-2.1-.1-.4-.3-.9-.5-1.3-1.1,1.1-2.5,1.7-4,1.8Z"/>
    <path class="cls-4" d="M213.1,92.71c.5,.2,1,.2,1.5,0,1.1-.3,1.1-1.3,.8-2.1-1.2,.1-2.1,1-2.3,2.1Z"/>
    <path class="cls-12" d="M231.4,77.91c-1.3-.2-4.2-4.7-5.5-6.4s-1.8-11.1-1.8-13.2c2.3,1.4,4.1,3.3,5.3,5.7,1.3,2.8,2,8.3,2,13.9Z"/>
    <path class="cls-11" d="M207.9,65.61c1.5,1.7,3.8,2.6,6.1,2.2s4.3-1.9,5.2-4.1c0-.1,.1,0,.1,0-.8,2.4-2.8,4.1-5.2,4.6-2.4,.3-4.8-.7-6.3-2.6-.1-.1,0-.2,.1-.1Z"/>
    <path class="cls-11" d="M214.7,49.11c3.9,.1,7.4,2.2,8.8,4.8,.8,1.5,1.1,3.2,.8,4.8,0,.1-.1,.1-.1,0,.1-3-1.4-5.8-3.9-7.4-2.8-1.8-6.2-2.2-9.3-1.1-1.5,.5-2.8,1.5-3.6,2.9-.1,.1-.4,0-.3-.1,.9-2.3,4.1-3.9,7.6-3.9Z"/>
    <path class="cls-11" d="M192.4,57.61c.6-1.9,1.9-3.5,3.6-4.6,2.4-1.5,5-1.3,7.7-1,.1,0,.1,.1,0,.1-2.3-.2-4.6-.3-6.6,.8-1.7,.9-3.1,2.3-3.8,4.1-1.5,3.7-.1,8,3.4,10.1,2,1.1,4.4,1.3,6.5,.6,.1,0,.1,.1,.1,.1-4.3,1.6-9.1-.6-10.7-4.9-.7-1.7-.7-3.5-.2-5.3h0Z"/>
    <path class="cls-11" d="M230.6,67.91s3.6-6.9,.5-10.9c-1.8-2.2-7.5-1.9-7.5-1.9-1.6-2.3-4-3.8-6.7-4.3-4.8-1-10.5,1.8-10.5,1.8,0,0-4.6-2.6-8.8-.1-5.9,3.5-5.1,12.6,.9,15.4,4.2,2,9.9-1.8,9.9-1.8,.6,.1,6.2,3.4,10.4-1.7,0,0,3.5,3,6.6,.8,1.1,2,3.1,3,5.2,2.7Z"/>
    <path class="cls-6" d="M227.8,80.21s3.4-6.8,6.4-5.7,1.1,10.6-2,12.3c-1.6,1-3.7,.6-4.7-1l-.1-.1,.4-5.5Z"/>
    <path class="cls-11" d="M233.7,77.21s.1,.1,0,0c-2.2,1.4-3.1,3.7-3.6,6,.4-1,1.5-1.4,2.4-1,.1,0,.2,.1,.3,.1s0,.1,0,.1c-.9-.2-1.7,.2-2.2,1-.3,.6-.6,1.3-.8,2-.1,.2-.5,.2-.4-.1h0c-.5-2.8,1.1-7.3,4.3-8.1Z"/>
    <polygon class="cls-7" points="220.4 93.91 226.6 91.41 231.7 85.41 230.8 84.61 225.9 90.41 220 92.81 220.4 93.91"/>
    <path class="cls-9" d="M221.1,92.91c-.6-1.8-5.6-1.3-4.8,1.5s5.4,.3,4.8-1.5Z"/>
    <path class="cls-7" d="M234.4,74.41s.9-10.1-1.9-15.7c-3.1-6.3-16.6-12.5-26.1-6.1,0,0,15.2-2.3,22.1,6.4,2.9,3.7,2.5,15.5,2.5,15.5l3.4-.1Z"/>
    <ellipse class="cls-7" cx="232.97" cy="79.49" rx="9.3" ry="8.2" transform="translate(145.16 309.45) rotate(-87.94)"/>
    <path class="cls-2" d="M227.2,79.01c-.2,4.6,3,8.5,7,8.6s7.5-3.5,7.6-8.1-3-8.5-7-8.6-7.4,3.5-7.6,8.1Z"/>
    <path class="cls-11" d="M233.2,108.81c-2.1,2.6-4.3,5-6.6,7.3-2.2,2.1-5,4-8,4.3s-6-.3-7.1-3.9c-.9-2.9-.8-5.9-.3-9.6q0-.1-.1-.1t-.1,.1c-.6,4.8-1.3,12.2,3.1,13.8,4.9,1.8,9.6-.7,13-4.1,2.4-2.3,4.5-4.9,6.3-7.7,0-.1-.1-.2-.2-.1Z"/>
  </g>
  <g id="freepik--Device--inject-16">
    <rect class="cls-7" x="169.4" y="218.31" width="88.9" height="4"/>
    <polygon class="cls-5" points="239.3 218.31 242.3 222.31 169.4 222.31 169.4 218.31 239.3 218.31"/>
    <polygon class="cls-7" points="235.5 222.31 148.8 222.31 141.6 163.41 228.3 163.41 235.5 222.31"/>
    <path class="cls-3" d="M193.8,192.81c.1,2.9-2.2,5.2-5.1,5.3h-.1c-2.9,0-5.3-2.3-5.4-5.3-.1-2.8,2.2-5.2,5-5.3h.2c3,.1,5.3,2.4,5.4,5.3Z"/>
  </g>
  <g id="freepik--Table--inject-16">
    <rect class="cls-10" x="342.2" y="230.01" width="92.7" height="11.9"/>
    <rect class="cls-9" x="344.8" y="241.91" width="87.5" height="3.7"/>
    <rect class="cls-10" x="357.3" y="332.21" width="62.5" height="3.7"/>
    <polygon class="cls-10" points="355.3 386.81 350.7 386.81 350.7 245.61 363.3 245.61 355.3 386.81"/>
    <polygon class="cls-11" points="363.3 245.61 362.8 254.01 350.7 254.01 350.7 245.61 363.3 245.61"/>
    <polygon class="cls-10" points="421.8 386.81 426.5 386.81 426.5 245.61 413.8 245.61 421.8 386.81"/>
    <polygon class="cls-11" points="413.8 245.61 414.3 254.01 426.5 254.01 426.5 245.61 413.8 245.61"/>
  </g>
  <g id="freepik--Books--inject-16">
    <rect class="cls-10" x="344.8" y="200.41" width="71.5" height="12.2"/>
    <rect class="cls-1" x="404" y="200.41" width="6.7" height="12.2"/>
    <rect class="cls-1" x="350.4" y="200.41" width="6.7" height="12.2"/>
    <rect class="cls-11" x="348.5" y="212.61" width="78.4" height="17.4"/>
    <rect class="cls-3" x="390.5" y="214.41" width="36.3" height="13.8"/>
    <path class="cls-8" d="M426.9,217.21c-4.9-.1-18.2-.3-18.2-.3l-3.5,.1c-4.9,0-9.8,.1-14.6,.2,4.9,.1,9.8,.2,14.6,.2l3.5,.1s13.3-.2,18.2-.3Z"/>
    <path class="cls-8" d="M426.9,219.91c-4.9-.1-18.2-.3-18.2-.3l-3.5,.1c-4.9,0-9.8,.1-14.6,.2,4.9,.1,9.8,.2,14.6,.2l3.5,.1s13.3-.1,18.2-.3Z"/>
    <path class="cls-8" d="M426.9,222.71c-4.9-.1-18.2-.3-18.2-.3l-3.5,.1c-4.9,0-9.8,.1-14.6,.2,4.9,.1,9.8,.2,14.6,.2l3.5,.1s13.3-.2,18.2-.3Z"/>
    <path class="cls-8" d="M426.9,225.41c-4.9-.1-18.2-.3-18.2-.3l-3.5,.1c-4.9,0-9.8,.1-14.6,.2,4.9,.1,9.8,.2,14.6,.2l3.5,.1c0-.1,13.3-.2,18.2-.3Z"/>
    <path class="cls-2" d="M354.3,223.71v-4.1c0-.2,.2-.4,.4-.4h2.3c.2,0,.4,.2,.4,.4s-.2,.4-.4,.4h-1.9v1.3h1.6c.2,0,.4,.2,.4,.4s-.2,.4-.4,.4h-1.6v1.3h1.9c.2,0,.4,.2,.4,.4s-.2,.4-.4,.4h-2.3c-.2-.1-.4-.3-.4-.5Z"/>
    <path class="cls-2" d="M359.2,223.71c0,.2-.2,.4-.4,.4s-.4-.2-.4-.4v-4.1h0c0-.1,.1-.3,.1-.3,.2-.1,.4-.1,.5,.1h0l2.3,3.1v-2.9c0-.2,.2-.4,.4-.4s.4,.2,.4,.4v4.1c0,.2-.2,.4-.4,.4-.1,0-.2-.1-.3-.1h0l-2.2-3.1v2.8Z"/>
    <path class="cls-2" d="M363.3,221.61c0-1.4,1.2-2.5,2.6-2.5h0c.6,0,1.1,.2,1.6,.6,.2,.1,.2,.4,.1,.6s-.4,.2-.6,.1h0c-.3-.2-.7-.4-1.1-.4-.5,0-.9,.2-1.3,.5-.3,.3-.5,.8-.5,1.2,0,.5,.2,.9,.5,1.2s.8,.5,1.3,.5c.4,0,.7-.1,1-.3v-1h-1c-.2,0-.4-.2-.4-.4s.2-.4,.4-.4h1.4c.2,0,.4,.2,.4,.4h0v1.7h0c0,.1-.1,.1-.1,.2-.5,.4-1,.5-1.6,.6-1.5-.2-2.7-1.2-2.7-2.6Z"/>
    <path class="cls-2" d="M368.8,223.71v-4.1c0-.2,.2-.4,.4-.4s.4,.2,.4,.4h0v3.7h1.9c.2,0,.4,.2,.4,.4s-.2,.4-.4,.4h-2.3c-.2,0-.4-.2-.4-.4Z"/>
    <path class="cls-2" d="M372.9,219.61c0-.2,.2-.4,.4-.4h0c.2,0,.4,.2,.4,.4v4.1c0,.2-.2,.4-.4,.4s-.4-.2-.4-.4h0v-4.1Z"/>
    <path class="cls-2" d="M374.8,222.81c.1-.2,.4-.2,.5-.1h0c.4,.3,.8,.5,1.3,.5,.3,0,.6-.1,.9-.3,.2-.1,.3-.3,.3-.5,0-.1,0-.2-.1-.2-.1-.1-.1-.2-.2-.2-.3-.2-.6-.3-1-.3h0c-.3,0-.6-.1-.9-.3-.3-.1-.5-.3-.6-.6-.1-.2-.2-.4-.2-.6,0-.4,.2-.8,.5-1,.4-.3,.8-.4,1.2-.4,.6,0,1.1,.2,1.5,.6,.2,.1,.2,.3,.1,.5h0c-.1,.2-.3,.2-.5,.1h0c-.3-.3-.7-.4-1-.5-.3,0-.6,.1-.8,.2s-.3,.3-.3,.4v.2c0,.1,.1,.1,.2,.2,.3,.2,.6,.3,.9,.3h0c.3,.1,.7,.2,1,.3s.5,.3,.7,.6c.1,.2,.2,.4,.2,.6,0,.4-.2,.8-.6,1.1-.4,.3-.8,.4-1.3,.4-.7,0-1.3-.3-1.8-.7,0,.1-.1-.1,0-.3Z"/>
    <path class="cls-2" d="M379.6,223.71v-4.1c0-.2,.2-.4,.4-.4h0c.2,0,.4,.2,.4,.4h0v1.7h1.8v-1.7c0-.2,.2-.4,.4-.4h0c.2,0,.4,.2,.4,.4h0v4.1c0,.2-.2,.4-.4,.4h0c-.2,0-.4-.2-.4-.4h0v-1.7h-1.8v1.7c0,.2-.2,.4-.4,.4h0c-.2,0-.4-.2-.4-.4h0Z"/>
    <rect class="cls-2" x="355.6" y="191.11" width="70.3" height="9.3"/>
    <rect class="cls-3" x="355.6" y="192.11" width="47.2" height="7.4"/>
    <path class="cls-8" d="M358.6,197.91c3.7,0,7.3,.1,11,.1h22c3.7,0,7.3,0,11-.1-3.7,0-7.4-.1-11-.1h-22c-3.6,.1-7.3,.1-11,.1Z"/>
    <path class="cls-8" d="M358.6,196.51c3.7,0,7.4,.1,11,.1h22c3.7,0,7.4,0,11-.1-3.7,0-7.3-.1-11-.1h-22c-3.6,0-7.3,.1-11,.1Z"/>
    <path class="cls-8" d="M358.6,195.01c3.7,0,7.4,.1,11,.1h22c3.7,0,7.4,0,11-.1-3.7,0-7.3-.1-11-.1h-22c-3.6,.1-7.3,.1-11,.1Z"/>
    <path class="cls-8" d="M358.6,193.61c3.7,0,7.3,.1,11,.1h22c3.7,0,7.3,0,11-.1-3.7,0-7.4-.1-11-.1h-22c-3.6,0-7.3,.1-11,.1Z"/>
    <path class="cls-1" d="M359.8,208.51v-4.1c0-.2,.2-.4,.4-.4h.8c1.4,0,2.5,1.1,2.5,2.4,0,1.4-1.1,2.5-2.4,2.5h-.8c-.3,0-.5-.2-.5-.4h0Zm.8-.4h.4c.9,0,1.7-.7,1.7-1.7,0-.9-.7-1.7-1.7-1.7h-.4v3.4Z"/>
    <path class="cls-1" d="M364.5,204.41c0-.2,.2-.4,.4-.4h0c.2,0,.4,.2,.4,.4v4.1c0,.2-.2,.4-.4,.4s-.4-.2-.4-.4h0v-4.1Z"/>
    <path class="cls-1" d="M366.4,206.41c0-1.4,1.2-2.5,2.6-2.5,.6,0,1.2,.2,1.6,.5,.2,.1,.2,.4,.1,.6-.1,.2-.4,.2-.6,.1-.3-.3-.7-.4-1.1-.4-.5,0-.9,.2-1.3,.5-.3,.3-.5,.8-.5,1.2,0,.5,.2,.9,.5,1.2s.8,.5,1.3,.5c.4,0,.8-.1,1.1-.4,.2-.1,.4-.1,.6,.1,.1,.2,.1,.4-.1,.6-1.1,.9-2.8,.7-3.6-.4-.4-.6-.6-1.1-.6-1.6h0Z"/>
    <path class="cls-1" d="M375,204.81h-1.1v3.7c0,.2-.2,.4-.4,.4h0c-.2,0-.4-.2-.4-.4v-3.7h-1.1c-.2,0-.4-.2-.4-.4s.2-.4,.4-.4h3c.2,0,.4,.2,.4,.4,0,.2-.2,.4-.4,.4Z"/>
    <path class="cls-1" d="M376.6,204.41c0-.2,.2-.4,.4-.4h0c.2,0,.4,.2,.4,.4v4.1c0,.2-.2,.4-.4,.4s-.4-.2-.4-.4h0v-4.1Z"/>
    <path class="cls-1" d="M382.5,204.61c.9,1,.9,2.6,0,3.5-.4,.5-1,.7-1.7,.8-.7,0-1.3-.3-1.7-.8-.9-1-.9-2.5,0-3.5,.4-.5,1.1-.7,1.7-.8,.7,0,1.3,.3,1.7,.8Zm-.1,1.8c0-.5-.2-.9-.5-1.2s-.7-.5-1.1-.5-.8,.2-1.1,.5c-.3,.3-.5,.8-.5,1.2,0,.5,.2,.9,.5,1.2,.6,.6,1.5,.7,2.1,.1l.1-.1c.4-.4,.5-.8,.5-1.2Z"/>
    <path class="cls-1" d="M385.2,208.51c0,.2-.2,.4-.4,.4s-.4-.2-.4-.4h0v-4.1h0c0-.1,.1-.2,.2-.3,.2-.1,.4-.1,.5,.1l2.3,3.1v-2.9c0-.2,.2-.4,.4-.4s.4,.2,.4,.4v4.1c0,.2-.2,.4-.4,.4h0c-.1,0-.2-.1-.3-.1h0l-2.2-3.1-.1,2.8Z"/>
    <path class="cls-1" d="M392.3,207.71h-1.7l-.3,.9c-.1,.1-.2,.2-.4,.2h-.1c-.2-.1-.3-.3-.2-.5l1.5-4.1c.1-.2,.3-.3,.5-.2,.1,0,.2,.1,.2,.2l1.5,4.1c.1,.2,0,.4-.2,.5h-.1c-.2,0-.3-.1-.4-.2l-.3-.9Zm-.2-.8l-.6-1.5-.6,1.5h1.2Z"/>
    <path class="cls-1" d="M397.6,208.31c.1,.2,0,.4-.2,.5h-.1c-.1,0-.2,0-.3-.1-.1-.1-.2-.1-.2-.2-.1-.3-.2-.6-.1-.8,0-.1,0-.2-.1-.3s-.1-.2-.2-.2c-.1-.1-.3-.1-.4-.2h-.8v1.5c0,.2-.2,.4-.4,.3-.2,0-.3-.2-.3-.3v-4.1c0-.2,.2-.4,.4-.4h1.3c.8,0,1.5,.7,1.5,1.5,0,.4-.2,.9-.5,1.1,.1,.1,.2,.2,.2,.3,.2,.2,.2,.5,.2,.8v.4c-.1,0,0,.1,0,.2Zm-1-2.8c0-.4-.3-.7-.7-.7h-.9v1.4h.9c.4,0,.7-.3,.7-.7h0Z"/>
    <path class="cls-1" d="M402,204.61l-1.4,2v1.9c0,.2-.2,.4-.4,.4h0c-.2,0-.4-.2-.4-.4v-1.9l-1.4-2c-.1-.2-.1-.4,0-.5h0c.2-.1,.4-.1,.5,.1h0l1.2,1.6,1.2-1.6c.1-.2,.4-.2,.5-.1,.2,.1,.3,.4,.2,.5Z"/>
  </g>
  <g id="freepik--speech-bubbles--inject-16">
    <path class="cls-3" d="M179.7,56.51c1.9-2.9,3-6.4,3-9.9,0-12.5-13.7-22.6-30.6-22.6s-30.6,10.1-30.6,22.6,13.7,22.6,30.6,22.6c7.5,.1,14.9-2.1,21.1-6.3l10.6,2.7-4.1-9.1Z"/>
    <path class="cls-11" d="M179.7,56.51c1.8-2.8,2.8-6,2.9-9.3,0-3.3-.8-6.6-2.6-9.4-1.7-2.8-4-5.2-6.7-7.1s-5.6-3.4-8.8-4.4c-3.1-1-6.4-1.6-9.6-1.8-3.3-.2-6.6,0-9.8,.5s-6.4,1.5-9.3,3c-3,1.4-5.7,3.3-8,5.6s-4,5.1-5.1,8.1c-1,3.1-1,6.4-.1,9.5,1,3.1,2.6,5.9,4.9,8.2,2.3,2.3,5,4.2,7.9,5.7,3,1.4,6.1,2.4,9.3,3s6.5,.8,9.8,.7c6.6-.3,13-2.3,18.5-6l.1-.1h.1l10.5,2.8v.2s-4-9.2-4-9.2Zm0,0l4.2,9.1,.1,.2h-.2l-10.6-2.6h.2c-5.5,3.8-12,6-18.7,6.3-6.7,.5-13.4-.8-19.5-3.6-3-1.5-5.8-3.4-8.2-5.8s-4.2-5.4-5.2-8.7c-1-3.3-.9-6.8,.1-10.1,1.1-3.2,2.9-6.2,5.3-8.5,2.4-2.4,5.2-4.3,8.3-5.7,3-1.4,6.3-2.5,9.6-3,3.3-.6,6.7-.7,10-.5,3.3,.3,6.6,.9,9.8,2,3.2,1,6.2,2.6,8.9,4.5,2.7,1.9,5,4.4,6.7,7.3s2.5,6.2,2.4,9.6c-.2,3.5-1.3,6.7-3.2,9.5Z"/>
    <polygon class="cls-3" points="228.1 115.11 228.1 146.61 239.2 146.61 239.2 157.61 251.1 146.61 292.4 146.61 292.4 115.11 228.1 115.11"/>
    <path class="cls-11" d="M228.1,115.11l.3,31.6-.3-.3,11.1-.1h.3v.3l.1,10.9-.7-.3,11.8-11,.1-.1h41.6l-.5,.5v-31.6l.4,.4-32.1-.2-32.1-.1Zm0,0l32.1-.3,32.3-.2h.4v32.5h-41.9l.3-.1-11.9,10.9-.7,.6v-.9l.1-10.9,.3,.3-11.1-.1h-.3v-.2l.4-31.6Z"/>
  </g>
  <g>
    <path d="M133.3,50.71h-1.7v-8.4h1.7v3.4h3.4v-3.4h1.7v8.4h-1.7v-3.4h-3.4v3.4Z"/>
    <path d="M145.7,50.71h-5.8v-8.4h5.8v1.7h-4.1v1.7h2.8v1.7h-2.8v1.7h4.1v1.6Z"/>
    <path d="M152.7,50.71h-5.9v-8.4h1.7v6.7h4.2v1.7Z"/>
    <path d="M159.5,50.71h-5.9v-8.4h1.7v6.7h4.2v1.7Z"/>
    <path d="M168.6,46.51c0,.4-.1,.8-.2,1.2s-.2,.7-.4,1-.4,.6-.7,.9-.6,.5-.9,.7-.7,.3-1,.4-.8,.2-1.2,.2-.8-.1-1.2-.2-.7-.2-1-.4-.6-.4-.9-.7-.5-.6-.7-.9-.3-.7-.4-1-.2-.8-.2-1.2,.1-.8,.2-1.2,.2-.7,.4-1,.4-.6,.7-.9,.6-.5,.9-.7,.7-.3,1-.4,.8-.2,1.2-.2,.8,.1,1.2,.2,.7,.2,1,.4,.6,.4,.9,.7,.5,.6,.7,.9,.3,.7,.4,1,.2,.8,.2,1.2Zm-1.7,0c0-.4-.1-.7-.2-1s-.3-.6-.6-.8-.5-.4-.8-.6-.7-.2-1-.2c-.4,0-.7,.1-1,.2s-.6,.3-.8,.6-.4,.5-.6,.8-.2,.7-.2,1,.1,.7,.2,1,.3,.6,.6,.8,.5,.4,.8,.6,.7,.2,1,.2c.4,0,.7-.1,1-.2s.6-.3,.8-.6,.4-.5,.6-.8,.2-.6,.2-1Z"/>
  </g>
  <g>
    <path d="M238,135.81h-1.7v-8.4h1.7v3.4h3.4v-3.4h1.7v8.4h-1.7v-3.4h-3.4v3.4Z"/>
    <path d="M246.3,127.81c0,.1,0,.3-.1,.4s-.1,.2-.2,.3-.2,.2-.3,.2-.3,.1-.4,.1-.3,0-.4-.1-.2-.1-.3-.2-.2-.2-.2-.3-.1-.3-.1-.4,0-.3,.1-.4,.1-.2,.2-.3,.2-.2,.3-.2,.3-.1,.4-.1,.3,0,.4,.1,.2,.1,.3,.2,.2,.2,.2,.3,.1,.2,.1,.4Zm-.2,8h-1.6v-6.3h1.6v6.3Z"/>
    <path d="M253.8,135.81c-.4,0-.8-.1-1.1-.2s-.6-.3-.9-.6-.5-.6-.6-.9-.2-.7-.2-1.1v-1.9h-.8v-1.6h.8v-2.5h1.6v2.5h2.4v1.6h-2.4v1.9c0,.2,0,.3,.1,.5s.1,.3,.3,.4,.2,.2,.4,.3,.3,.1,.5,.1h1.2v1.6h-1.3v-.1Z"/>
    <path d="M257.5,135.81h-1.6v-8.8h1.6v2.8l.6-.3c.2-.1,.4-.1,.6-.1,.4,0,.8,.1,1.1,.2s.6,.3,.9,.6,.5,.6,.6,.9,.2,.7,.2,1.1v3.6h-1.6v-3.6h0c0-.2,0-.3-.1-.5s-.1-.3-.3-.4-.2-.2-.4-.3-.3-.1-.5-.1-.3,0-.5,.1-.3,.1-.4,.3-.2,.2-.3,.4-.1,.3-.1,.5v3.6h.2Z"/>
    <path d="M265.1,134.21h.4c.2,0,.3,0,.5-.1s.3-.1,.4-.2,.2-.2,.3-.3,.2-.2,.2-.4l1.2,1.2c-.1,.2-.3,.4-.5,.6s-.4,.3-.6,.4-.5,.2-.7,.3-.5,.1-.8,.1c-.4,0-.9-.1-1.2-.2s-.7-.4-1-.7-.5-.6-.7-1-.3-.8-.3-1.3,.1-.9,.3-1.4,.4-.8,.7-1,.6-.5,1-.7,.8-.2,1.2-.2c.3,0,.5,0,.8,.1s.5,.2,.7,.3,.4,.3,.6,.4,.4,.4,.5,.6l-3,3.5Zm.9-3.3q-.1,0-.2-.1c-.1-.1-.1,0-.2,0-.2,0-.4,0-.6,.1s-.4,.2-.5,.3-.3,.3-.3,.5-.1,.4-.1,.7v.6q0,.1,.1,.2l1.8-2.3Z"/>
    <path d="M270.5,135.81h-1.6v-6.3h.4l.5,.7c.3-.2,.6-.4,.9-.5s.7-.2,1-.2h1.4v1.6h-1.4c-.2,0-.3,0-.5,.1s-.3,.1-.4,.3-.2,.2-.3,.4-.1,.3-.1,.5v3.4h.1Z"/>
    <path d="M276.4,134.21h.4c.2,0,.3,0,.5-.1s.3-.1,.4-.2,.2-.2,.3-.3,.2-.2,.2-.4l1.2,1.2c-.1,.2-.3,.4-.5,.6s-.4,.3-.6,.4-.5,.2-.7,.3-.5,.1-.8,.1c-.4,0-.9-.1-1.2-.2s-.7-.4-1-.7-.5-.6-.7-1-.3-.8-.3-1.3,.1-.9,.3-1.4,.4-.8,.7-1,.6-.5,1-.7,.8-.2,1.2-.2c.3,0,.5,0,.8,.1s.5,.2,.7,.3,.4,.3,.6,.4,.4,.4,.5,.6l-3,3.5Zm.8-3.3q-.1,0-.2-.1c-.1-.1-.1,0-.2,0-.2,0-.4,0-.6,.1s-.4,.2-.5,.3-.3,.3-.3,.5-.1,.4-.1,.7v.6q0,.1,.1,.2l1.8-2.3Z"/>
    <path d="M281.9,133.71h-1.3l-.4-6.3h2l-.3,6.3Zm.3,1.5c0,.1,0,.3-.1,.4s-.1,.2-.2,.3-.2,.2-.3,.2-.2,.1-.4,.1c-.1,0-.3,0-.4-.1s-.2-.1-.3-.2-.2-.2-.2-.3-.1-.3-.1-.4,0-.3,.1-.4,.1-.2,.2-.3,.2-.2,.3-.2,.3-.1,.4-.1,.3,0,.4,.1,.2,.1,.3,.2,.2,.2,.2,.3,.1,.2,.1,.4Z"/>
  </g>
</svg>